<svg xmlns="http://www.w3.org/2000/svg" xmlns:xlink="http://www.w3.org/1999/xlink" width="853" height="645" viewBox="0 0 853 645">
    <defs>
        <path id="tvp7qlstra" d="M0 643L708.563 643 708.563 0.313 0 0.313z"/>
        <path id="e5g8magzhc" d="M.208 3.462c0 1.748 1.418 3.165 3.167 3.165 1.748 0 3.166-1.417 3.166-3.165C6.54 1.713 5.123.296 3.375.296 1.625.296.208 1.713.208 3.462"/>
        <path id="85y66k2bvf" d="M.146 3.426c0 1.748 1.418 3.166 3.167 3.166 1.749 0 3.166-1.418 3.166-3.166S5.062.26 3.313.26C1.563.26.146 1.678.146 3.426"/>
        <path id="ypmnbx8x5i" d="M.12 3.338c0 1.749 1.417 3.166 3.166 3.166 1.748 0 3.166-1.417 3.166-3.166C6.452 1.59 5.034.173 3.286.173 1.537.173.12 1.59.12 3.338"/>
        <path id="2mt7qp531l" d="M.549 6.527c0 3.313 2.686 6 6 6s6.001-2.687 6.001-6-2.687-6-6.001-6c-3.314 0-6 2.687-6 6"/>
        <path id="2ebkyfbj7o" d="M0.484 9.47L35.567 32.478 35.702 24.844 0.484 0.419z"/>
        <path id="zcx7urelgr" d="M30.29 62.842h54.538l-22.89-44.113C61.17 18.422.177.348.177.348L30.29 62.842z"/>
        <path id="f58f62hkhu" d="M0.426 0.391L44.198 0.391 44.198 55.53 0.426 55.53z"/>
        <path id="he4eghtzew" d="M4.805.379C2.45.379.54 2.27.54 4.603v46.703c0 2.333 1.91 4.224 4.265 4.224h35.602c2.355 0 4.264-1.89 4.264-4.224V4.603c0-2.333-1.91-4.224-4.264-4.224H4.805z"/>
        <linearGradient id="4ioxv98wud" x1=".001%" x2="99.999%" y1="50.001%" y2="50.001%">
            <stop offset="0%" stop-color="#3F85EF"/>
            <stop offset="100%" stop-color="#265DC8"/>
        </linearGradient>
        <linearGradient id="sf6fons0lg" x1="-.005%" x2="99.994%" y1="50%" y2="50%">
            <stop offset="0%" stop-color="#3F85EF"/>
            <stop offset="100%" stop-color="#265DC8"/>
        </linearGradient>
        <linearGradient id="65pwkz1pfj" x1="-.001%" x2="100.007%" y1="49.995%" y2="49.995%">
            <stop offset="0%" stop-color="#3F85EF"/>
            <stop offset="100%" stop-color="#265DC8"/>
        </linearGradient>
        <linearGradient id="f5kq6po8qm" x1="-.001%" x2="99.998%" y1="50%" y2="50%">
            <stop offset="0%" stop-color="#3F85EF"/>
            <stop offset="100%" stop-color="#265DC8"/>
        </linearGradient>
        <linearGradient id="tej2ybvusp" x1="0%" x2="100.001%" y1="50.001%" y2="50.001%">
            <stop offset="0%" stop-color="#67B1FB"/>
            <stop offset="100%" stop-color="#529AF6"/>
        </linearGradient>
        <linearGradient id="kgwb2whwos" x1="0%" x2="100%" y1="50%" y2="50%">
            <stop offset="0%" stop-color="#67B1FB"/>
            <stop offset="100%" stop-color="#529AF6"/>
        </linearGradient>
        <linearGradient id="q9vyt2duqx" x1=".001%" x2="99.999%" y1="50%" y2="50%">
            <stop offset="0%" stop-color="#67B1FB"/>
            <stop offset="100%" stop-color="#529AF6"/>
        </linearGradient>
    </defs>
    <g fill="none" fill-rule="evenodd">
        <g>
            <g>
                <path fill="#CADFF8" fill-opacity=".25" d="M849.967 449.441c-5.606-25.706-16.133-50.249-28.248-73.502-12.746-24.47-29.613-46.527-42.038-71.167-11.07-21.974-14.024-46.157-10.801-70.2.614-4.607 1.45-9.2 2.508-13.78 5.96-25.933 16.647-52.534 17.782-79.846.315-8.045-.69-16.088-2.978-23.808-.738-2.533-1.613-5.042-2.603-7.495-.94-2.339-1.985-4.632-3.137-6.88-8.903-17.416-23.837-32.043-41.399-40.812-37.125-18.518-78.347-4.021-113.146 12.566-9.483 4.508-19.224 8.453-29.172 11.813-24.65 8.377-50.35 13.386-76.28 16.41-.249.034-.493.064-.745.089-.205.03-.403.05-.608.07-5.55.635-11.106 1.183-16.667 1.645-1.558.134-3.112.244-4.662.344-1.378.086-2.757.16-4.122.22-5.29.245-10.497.284-15.613.15-.26 0-.514-.011-.774-.02-41.013-1.2-76.899-13.756-116.42-29.624-27.553-11.057-58.647-14.296-87.95-9.349-6.966 1.174-13.842 2.827-20.58 4.947-20.842 6.574-39.993 17.687-55.282 33.508-1.857 1.91-3.652 3.9-5.385 5.965-3.624 4.276-6.935 8.808-9.906 13.56-.59.92-1.16 1.86-1.72 2.809-.414.698-.824 1.415-1.223 2.13-4.027 7.133-6.37 14.053-7.935 20.942-3.038 13.405-3.106 26.674-6.778 41.18-.197.769-.402 1.543-.615 2.31-1.226 4.422-3.012 8.668-5.317 12.636-2.02 3.464-4.402 6.704-7.105 9.666-21.432 23.62-61.965 31.439-90.596 37.43-29.644 6.2-51.347 20.947-58.033 51.75-4.355 20.081-3.086 43.085 5.906 62.096 2.53 5.403 5.736 10.462 9.542 15.055 6.745 8.083 15.889 13.51 24.122 20.087 2.31 1.822 4.513 3.775 6.6 5.85 20.294 20.451 31.08 47.066 36.875 74.907 3.478 16.648 1.924 35.9 4.393 53.478 1.543 11.038 4.671 21.42 11.626 30.074 2.463 3.063 5.303 5.804 8.453 8.156.4.304.805.604 1.215.895.3.22.593.43.897.63l.397.274c.048.03.099.07.15.106.134.099.277.19.423.284.784.52 1.578 1.03 2.39 1.519.367.22.742.454 1.123.661 1.799 1.05 3.65 2.024 5.54 2.917.249.126.49.236.74.35 1.07.494 2.143.964 3.236 1.405.35.145.706.288 1.06.425 1.729.68 3.492 1.303 5.275 1.872.3.101.6.196.904.29.97.3 1.949.58 2.939.85.44.12.87.24 1.309.35 2.469.64 4.967 1.189 7.494 1.649l.935.165c.661.115 1.323.22 1.969.324.308.051.623.095.939.14l.705.105c.178.024.36.05.538.07.034.003.067.003.101 0 .525.082 1.05.146 1.578.221.331.04.662.08.984.115.595.075 1.185.139 1.785.198 1.484.146 2.971.276 4.462.366.339.029.683.044 1.022.068 1.24.07 2.489.126 3.732.166.595.02 1.195.04 1.79.05 11.83.22 23.606-.959 34.288-2.967 1.084-.205 2.169-.41 3.251-.626 1.083-.216 2.125-.414 3.179-.624 1.054-.21 2.123-.44 3.176-.661.91-.183 1.814-.375 2.718-.569.41-.086.816-.17 1.226-.26.505-.104 1.003-.22 1.503-.315.126-.025.256-.049.38-.08.065-.015.13-.024.189-.04l.73-.16.38-.084c.08-.015.15-.03.221-.05 1.279-.28 2.546-.565 3.82-.85l1.4-.315c.21-.05.425-.094.635-.15.785-.174 1.57-.359 2.358-.54.044-.013.095-.024.15-.035 1.433-.328 2.866-.661 4.296-1.007 1.475-.355 2.939-.71 4.409-1.07 1.47-.359 2.934-.72 4.409-1.09 1.474-.371 2.938-.735 4.408-1.103.17-.044.335-.084.51-.135.595-.15 1.199-.304 1.794-.458.698-.176 1.393-.35 2.087-.536l1.728-.454c1.617-.42 3.233-.843 4.85-1.27 2.192-.588 4.383-1.175 6.57-1.763 13.046-3.527 26.051-7.189 39.074-10.787.095-.03.196-.055.296-.086 2.498-.69 4.996-1.377 7.494-2.059 2.747-.75 5.494-1.49 8.242-2.222 4.926-1.323 9.862-2.617 14.808-3.882 2.95-.75 5.9-1.484 8.849-2.204 3.202-.785 6.404-1.546 9.608-2.284l5.78-1.323 2.378-.525c.154-.028.304-.064.46-.094 5.07-1.103 10.198-2.159 15.318-3.122 14.549-2.749 29.318-5.07 44.256-6.812l.553-.068c65.486-7.652 133.631-4.559 195.378 19.89 52.903 20.943 114.035 34.966 169.544 15.743 4.449-1.53 8.804-3.32 13.042-5.361 11.108-5.33 20.701-12.085 28.705-19.995.119-.11.249-.24.36-.36 10.146-10.109 17.888-22.372 22.65-35.881.205-.56.402-1.118.585-1.685 6.2-18.55 7.135-39.54 2.354-61.496z" transform="translate(-930 -182) matrix(-1 0 0 1 1783 182.13)"/>
                <g>
                    <path fill="#CADFF8" d="M645.681 0.871L657 8.737 657 166.871 385.802 166.871 377 159.918" transform="translate(-930 -182) matrix(-1 0 0 1 1783 182.13) translate(30)"/>
                    <g transform="translate(-930 -182) matrix(-1 0 0 1 1783 182.13) translate(30) translate(0 .87)">
                        <path fill="#1A4176" d="M477.161 478.688c-2.333-5.563-8.36-8.646-14.21-10.148-5.85-1.501-12.028-1.914-17.547-4.364-7.268-3.225-12.833-10.036-14.538-17.793-1.706-7.757.489-16.27 5.734-22.24 1.085-1.233 2.361-2.522 2.44-4.161.08-1.669-1.162-3.148-2.609-3.987-1.446-.839-3.11-1.21-4.664-1.827-4.823-1.915-8.414-6.19-10.544-10.917-2.13-4.728-2.964-9.923-3.639-15.063-.64-4.866-1.022-10.277 1.91-14.217 2.434-3.269 6.65-4.729 10.705-5.157 7.75-.82 15.792 1.6 21.798 6.559 6.005 4.96 9.896 12.393 10.545 20.148.397 4.732-.262 9.893 2.345 13.864 2.376 3.62 6.935 5.236 11.262 5.488 4.328.25 8.637-.615 12.968-.798 4.33-.183 8.958.432 12.302 3.186 2.695 2.22 4.261 5.742 4.105 9.227-.155 3.486-2.03 6.853-4.913 8.824-2.232 1.528-5.26 2.554-6.002 5.154-.674 2.368 1.07 4.822 3.2 6.062 2.13 1.24 4.627 1.667 6.9 2.618 6.778 2.837 10.96 10.81 9.435 17.989-1.525 7.181-8.587 12.771-15.936 12.615"/>
                        <path stroke="#FFF" stroke-linecap="round" stroke-linejoin="round" stroke-width="2" d="M439.481 393.083s1.148 27.393 22.502 31.352c21.353 3.959 2.755 19.78 10.562 30.327 7.806 10.547 19.286 14.215 15.383 18.572"/>
                        <path fill="#CADFF8" d="M511.358 487.812c.922.804 8.718-7.254 14.161-8.875 5.443-1.622 11.267-1.597 16.726-3.162s10.918-5.446 11.65-11.07c.683-5.243-2.667-11.473.907-15.374 3.188-3.48 8.854-1.705 13.558-2.122 5.826-.517 11.002-5.301 11.968-11.063 1.305-7.78-4.283-14.863-9.51-20.779 5.05 2.383 11.444 1.589 15.757-1.955 4.312-3.545 6.322-9.659 4.953-15.066-1.388-5.48-5.895-10.236-5.456-15.871.52-6.64 7.564-10.848 9.85-17.104 2.055-5.623-.193-12.13-4.256-16.53-4.065-4.399-9.66-7.048-15.256-9.193-5.724-2.196-11.821-4-17.913-3.297-6.093.704-12.179 4.463-13.98 10.317-2.316 7.522 2.701 16.48-1.402 23.198-3.509 5.746-11.736 6.322-18.26 4.637-6.524-1.685-12.842-4.969-19.57-4.582-10.9.627-19.174 11.142-20.862 21.913-1.689 10.771 1.671 21.64 5.325 31.915 0 0 7.56 12.67-1.032 16.95-8.594 4.28 3.345 23.378 9.774 33.548"/>
                        <path fill="#FFF" d="M647.275 55.56c-8.38-4.31-16.987-8.125-26.102-10.44-13.914-3.532-29.38-3.23-41.807 3.943-17.54 10.119-25.283 31.064-38.985 45.962-17.07 18.56-44.41 27.024-68.997 21.357-13.727-3.159-26.16-10.254-38.947-16.165-12.786-5.919-26.727-10.795-40.712-9.071-5.378.656-10.731 2.56-15.382 5.449v51.608h270.932V55.56z"/>
                        <mask id="0ia9253asb" fill="#fff">
                            <use xlink:href="#tvp7qlstra"/>
                        </mask>
                        <path fill="#03157A" d="M376.343 159.437L647.275 159.437 647.275 148.204 376.343 148.204z" mask="url(#0ia9253asb)"/>
                        <path fill="#FE7101" d="M376.343.313v96.282c4.65-2.889 10.004-4.793 15.383-5.45 13.984-1.723 27.925 3.153 40.711 9.071 12.787 5.912 25.22 13.007 38.947 16.166 24.588 5.667 51.927-2.798 68.997-21.357 13.702-14.898 21.445-35.843 38.985-45.962 12.426-7.173 27.893-7.475 41.807-3.943 9.115 2.315 17.721 6.13 26.102 10.44V.313H376.343z" mask="url(#0ia9253asb)"/>
                        <path stroke="#1A1A1A" stroke-dasharray="12" stroke-linecap="round" stroke-linejoin="round" stroke-width="2" d="M379.13 94.617L379.13 148.203M444.963 106.473L444.963 148.203M510.796 113.581L510.796 148.204M576.63 51.367L576.63 148.203M642.463 53.16L642.463 148.204" mask="url(#0ia9253asb)"/>
                    </g>
                    <g transform="translate(-930 -182) matrix(-1 0 0 1 1783 182.13) translate(30) translate(639 49.87)">
                        <mask id="kcnwbkfx2e" fill="#fff">
                            <use xlink:href="#e5g8magzhc"/>
                        </mask>
                        <path fill="url(#4ioxv98wud)" d="M.208 3.462c0 1.748 1.418 3.165 3.167 3.165 1.748 0 3.166-1.417 3.166-3.165C6.54 1.713 5.123.296 3.375.296 1.625.296.208 1.713.208 3.462" mask="url(#kcnwbkfx2e)"/>
                    </g>
                    <g transform="translate(-930 -182) matrix(-1 0 0 1 1783 182.13) translate(30) translate(573 48.87)">
                        <mask id="oae2ztcnrh" fill="#fff">
                            <use xlink:href="#85y66k2bvf"/>
                        </mask>
                        <path fill="url(#sf6fons0lg)" d="M.146 3.426c0 1.748 1.418 3.166 3.167 3.166 1.749 0 3.166-1.418 3.166-3.166S5.062.26 3.313.26C1.563.26.146 1.678.146 3.426" mask="url(#oae2ztcnrh)"/>
                    </g>
                    <g transform="translate(-930 -182) matrix(-1 0 0 1 1783 182.13) translate(30) translate(508 110.87)">
                        <mask id="z9mb9qhz9k" fill="#fff">
                            <use xlink:href="#ypmnbx8x5i"/>
                        </mask>
                        <path fill="url(#65pwkz1pfj)" d="M.12 3.338c0 1.749 1.417 3.166 3.166 3.166 1.748 0 3.166-1.417 3.166-3.166C6.452 1.59 5.034.173 3.286.173 1.537.173.12 1.59.12 3.338" mask="url(#z9mb9qhz9k)"/>
                    </g>
                    <g transform="translate(-930 -182) matrix(-1 0 0 1 1783 182.13) translate(30) translate(439 99.87)">
                        <mask id="lmiykiurwn" fill="#fff">
                            <use xlink:href="#2mt7qp531l"/>
                        </mask>
                        <path fill="url(#f5kq6po8qm)" d="M.549 6.527c0 3.313 2.686 6 6 6s6.001-2.687 6.001-6-2.687-6-6.001-6c-3.314 0-6 2.687-6 6" mask="url(#lmiykiurwn)"/>
                    </g>
                    <g transform="translate(-930 -182) matrix(-1 0 0 1 1783 182.13) translate(30) translate(124 283.87)">
                        <mask id="ruc8yc4enq" fill="#fff">
                            <use xlink:href="#2ebkyfbj7o"/>
                        </mask>
                        <path fill="url(#tej2ybvusp)" d="M0.484 9.47L35.567 32.478 35.702 24.844 0.484 0.419z" mask="url(#ruc8yc4enq)"/>
                    </g>
                    <g fill="#102140">
                        <path d="M34.283 71.633L100.904 71.633 100.904 62.699 34.283 62.699zM4.195.347C4.195.96 34.283 62.7 34.283 62.7h-6.601L.204 2.945 4.195.347z" transform="translate(-930 -182) matrix(-1 0 0 1 1783 182.13) translate(30) translate(23 221.87)"/>
                    </g>
                    <g transform="translate(-930 -182) matrix(-1 0 0 1 1783 182.13) translate(30) translate(27 222.87)">
                        <mask id="358omicujt" fill="#fff">
                            <use xlink:href="#zcx7urelgr"/>
                        </mask>
                        <path fill="url(#kgwb2whwos)" d="M30.29 62.842h54.538l-22.89-44.113C61.17 18.422.177.348.177.348L30.29 62.842z" mask="url(#358omicujt)"/>
                    </g>
                    <g>
                        <path fill="#FFF4CF" d="M129.284 283.419L18.614 283.419 4.379 283.419 4.379 271.571 129.284 271.571z" transform="translate(-930 -182) matrix(-1 0 0 1 1783 182.13) translate(30) translate(0 22.87)"/>
                        <path fill="#FFB114" d="M116.426 283.419L22.287 283.419 22.287 292.596 116.426 293.03z" transform="translate(-930 -182) matrix(-1 0 0 1 1783 182.13) translate(30) translate(0 22.87)"/>
                        <path fill="#FFF4CF" d="M22.287 292.596v80.205s24.339 11 24.339 38.96c0 13.679.66 41.175 1.333 65.7h68.467V293.03l-94.139-.434z" transform="translate(-930 -182) matrix(-1 0 0 1 1783 182.13) translate(30) translate(0 22.87)"/>
                        <path fill="#FFB114" d="M47.959 477.461l.18 6.494h68.287v-6.494H47.959z" transform="translate(-930 -182) matrix(-1 0 0 1 1783 182.13) translate(30) translate(0 22.87)"/>
                        <path fill="#FFF4CF" d="M48.14 483.955c.64 22.78 1.241 41.482 1.241 41.482h67.045v-41.482H48.139z" transform="translate(-930 -182) matrix(-1 0 0 1 1783 182.13) translate(30) translate(0 22.87)"/>
                        <path fill="#FE7101" d="M129.284 271.571L276.689 381.968 276.689 395.719 272.085 398.469 272.085 392.212 129.284 283.418z" transform="translate(-930 -182) matrix(-1 0 0 1 1783 182.13) translate(30) translate(0 22.87)"/>
                        <path fill="#C95506" d="M272.085 392.212L129.284 283.418 116.426 283.418 116.426 283.519 272.007 404.257z" transform="translate(-930 -182) matrix(-1 0 0 1 1783 182.13) translate(30) translate(0 22.87)"/>
                        <path fill="#FFB114" d="M272.007 404.257L116.426 283.519 116.426 293.309 271.959 411.766z" transform="translate(-930 -182) matrix(-1 0 0 1 1783 182.13) translate(30) translate(0 22.87)"/>
                        <path fill="#FE7101" d="M271.959 411.766L116.426 293.309 116.426 476.602 271.351 505.468z" transform="translate(-930 -182) matrix(-1 0 0 1 1783 182.13) translate(30) translate(0 22.87)"/>
                        <path fill="#FFB114" d="M271.351 505.468L116.426 476.602 116.426 483.686 271.307 512.26z" transform="translate(-930 -182) matrix(-1 0 0 1 1783 182.13) translate(30) translate(0 22.87)"/>
                        <path fill="#FE7101" d="M116.426 483.686L116.426 525.437 271.204 528.187 271.307 512.26z" transform="translate(-930 -182) matrix(-1 0 0 1 1783 182.13) translate(30) translate(0 22.87)"/>
                        <path fill="#CADFF8" d="M66.294 517.262h513.504c14.671 0 33.292 8.54 35.415 22.152 2.122 13.612-7.24 27.103-19.78 34.243-12.541 7.14-27.659 9.034-42.32 9.55-53.621 1.888-110.719-11.944-158.957 10.097-14.663 6.7-27.682 16.47-42.915 21.937-23.013 8.26-48.6 5.917-73.1 3.453l-129.485-13.02c-41.513-4.175-84.264-8.703-120.878-27.518C12.661 570.386-2.699 556.74.403 540.84c2.146-11.001 13.014-19.044 24.536-21.933 11.524-2.89 29.507-2.928 41.355-1.644" transform="translate(-930 -182) matrix(-1 0 0 1 1783 182.13) translate(30) translate(0 22.87)"/>
                        <path fill="#102140" d="M200.838 514.895s-9.1 66.463-5.427 68.984c3.674 2.521 10.676.573 10.676-.573s4.363-19.137 4.363-19.137 9.299 19.94 19.746 20.169c10.447.229 29.504-2.636 26.979-8.824-2.526-6.188-18.025-5.615-22.731-14.553-4.708-8.939-4.708-45.722-4.708-45.265 0 .46-28.898-.801-28.898-.801M341.637 502.896s11.527 61.215 15.505 62.36c3.977 1.144 9.573-2.623 9.236-3.633-.337-1.01-1.784-18.136-1.784-18.136s14.055 14.84 23.325 11.98c9.27-2.857 25.216-10.965 21.172-15.676-4.045-4.71-17.53.334-24.304-6.16-6.775-6.495-17.592-38.899-17.457-38.495.135.403-25.693 7.76-25.693 7.76" transform="translate(-930 -182) matrix(-1 0 0 1 1783 182.13) translate(30) translate(0 22.87)"/>
                        <path fill="#03157A" d="M286.871 338.208c-3.433-6.856-2.861-15.425-8.583-22.28-1.145-.572-1.145-2.857-1.145-4.571-1.144-2.857-2.861-5.713-3.433-8.57-.898-3.137-1.757-6.195-2.617-9.196.98 10.819 2.346 23.85 4.218 37.956 5.05 38.045 56.485 168.68 56.485 168.68l14.665-4.543c-11.102-15.088-18.61-33.183-25.256-50.644-12.589-35.42-20.028-71.983-34.334-106.832" transform="translate(-930 -182) matrix(-1 0 0 1 1783 182.13) translate(30) translate(0 22.87)"/>
                        <path fill="#003FC3" d="M359.349 376.009c-4.133-39.878-27.094-128.343-35.36-146.678-8.265-18.335-14.389-16.501-15.613-16.196l-46.669-.194 7.177 50.31s.546 11.98 2.209 30.34c.86 3.001 1.719 6.06 2.617 9.196.572 2.857 2.289 5.713 3.433 8.57 0 1.714 0 3.999 1.145 4.57 5.722 6.856 5.15 15.425 8.583 22.28 14.306 34.85 21.745 71.413 34.334 106.833 6.646 17.461 14.154 35.556 25.256 50.644l25.286-7.833s-8.265-71.964-12.398-111.842" transform="translate(-930 -182) matrix(-1 0 0 1 1783 182.13) translate(30) translate(0 22.87)"/>
                        <path fill="#003FC3" d="M295.059 200.301l-42.73 7.511c-1.994 3.673-3.72 7.61-5.515 10.995-.572.571-2.86.571-3.433 1.143-5.722 9.712-10.873 18.281-17.167 27.993-.572 1.714.572 3.428 0 5.142-5.722 8.57-7.44 17.71-10.873 26.85-1.144 2.857.573 6.856-1.144 9.713-1.717 2.856-1.717 6.855-2.289 9.712-1.717 11.997-5.15 23.423-6.295 35.42-2.289 27.423-1.144 54.845 0 82.267 0 .571 1.717 1.714 1.717 2.285 1.145 9.712 1.717 18.282 2.861 27.994 1.717 9.712 3.434 19.424 3.434 29.136.572 2.285 2.289 4 1.716 6.284-.572 8.57 4.006 14.283 5.15 22.28l.176 1.16h16.99s46.84-171.43 44.774-237.894l12.628-67.991z" transform="translate(-930 -182) matrix(-1 0 0 1 1783 182.13) translate(30) translate(0 22.87)"/>
                        <path fill="#03157A" d="M215.342 482.746c.572-2.285-1.145-3.999-1.717-6.284 0-9.712-1.717-19.424-3.434-29.136-1.144-9.712-1.716-18.282-2.86-27.994 0-.571-1.717-1.714-1.717-2.285-1.145-27.422-2.29-54.845 0-82.267 1.144-11.997 4.577-23.423 6.294-35.42.572-2.857.572-6.856 2.29-9.712 1.716-2.857 0-6.856 1.144-9.712 3.433-9.141 5.15-18.282 10.872-26.851.572-1.714-.572-3.428 0-5.142 6.295-9.712 11.445-18.282 17.167-27.994.572-.57 2.861-.57 3.434-1.142 1.794-3.384 3.52-7.322 5.514-10.994l-8.548 1.502s-2.603-3.514-8.19-1.07c-5.587 2.445-32.374 42.171-36.048 88.924-3.673 46.754 1.295 209.017 1.295 209.017h19.83c-.06-.387-.117-.77-.176-1.16-1.145-7.997-5.723-13.71-5.15-22.28" transform="translate(-930 -182) matrix(-1 0 0 1 1783 182.13) translate(30) translate(0 22.87)"/>
                        <path fill="#1A1A1A" d="M232.111 211.391c-.658.472 12.98 9.898 30.215 12.871 17.786 3.069 48.855-1.787 52.808-5.66l-3.294-4.97-9.332-4.054-65.323-2.082-5.074 3.895z" transform="translate(-930 -182) matrix(-1 0 0 1 1783 182.13) translate(30) translate(0 22.87)"/>
                        <path stroke="#1A1A1A" stroke-linecap="round" stroke-linejoin="round" stroke-width="2" d="M232.111 211.391c-.658.472 12.98 9.898 30.215 12.871 17.786 3.069 48.855-1.787 52.808-5.66l-3.294-4.97-9.332-4.054-65.323-2.082-5.074 3.895z" transform="translate(-930 -182) matrix(-1 0 0 1 1783 182.13) translate(30) translate(0 22.87)"/>
                        <path fill="#FFD1BE" d="M338.141 130.934s18.453 15.28 25.34 14.363c6.889-.917 12.4 1.986 35.13-36.059 9.414-16.96 29.85-31.742 42.592-30.481 5.282.688 2.182 3.208.804 4.354s-15.269 5.157-16.646 8.939c3.788 4.468 8.61 11 2.525 16.96-6.084 5.958-10.906 4.354-16.417.686-4.936 13.523-24.111 61.986-54.722 56.991-15.92-2.597-30.614-20.932-30.614-20.932" transform="translate(-930 -182) matrix(-1 0 0 1 1783 182.13) translate(30) translate(0 22.87)"/>
                        <path fill="#FFF" d="M282.431 85.403s12.322-2.139 24.568 9.626c12.245 11.765 35.818 36.822 35.818 36.822s2.45 1.834-2.908 8.862c-5.357 7.028-7.348 14.82-16.379 8.25-9.03-6.57-31.21-26.585-31.21-26.585" transform="translate(-930 -182) matrix(-1 0 0 1 1783 182.13) translate(30) translate(0 22.87)"/>
                        <path fill="#F2EDEE" d="M259.404 203.382c-3.434-22.28-5.15-42.848-17.74-62.272-2.776-4.355-6.375-7.34-9.275-11.042-.619 4.891-.261 9.602 1.729 13.548 8.398 16.654 4.688 51.796 1.473 64.63 7.62 8.62 22.858 11.504 36.597 12.517-6.45-3.522-11.265-8.93-12.784-17.381" transform="translate(-930 -182) matrix(-1 0 0 1 1783 182.13) translate(30) translate(0 22.87)"/>
                        <path fill="#FFF" d="M312.969 215.35s-4.593-19.251-3.215-35.98c1.378-16.732 12.169-36.9 11.48-47.672-.688-10.771-21.353-29.335-21.353-29.335l-14.695-14.324-20.55-4.928s-17.335 13.522-17.794 13.552c-.35.022-12.464 17.652-14.453 33.405 2.9 3.703 6.5 6.688 9.276 11.043 12.589 19.424 14.306 39.99 17.739 62.27 1.52 8.452 6.333 13.86 12.783 17.382 4.89.36 9.59.486 13.688.547 15.613.229 27.094-5.96 27.094-5.96" transform="translate(-930 -182) matrix(-1 0 0 1 1783 182.13) translate(30) translate(0 22.87)"/>
                        <path fill="#FFF" d="M233.789 142.925c-7.509-16.786 12.6-46.233 13.053-46.262.46-.03 17.794-13.552 17.794-13.552l20.55 4.927" transform="translate(-930 -182) matrix(-1 0 0 1 1783 182.13) translate(30) translate(0 22.87)"/>
                        <path fill="#FFD1BE" d="M269.228 64.776s15.27 5.845 20.55-3.552c5.282-9.397 2.87-33.805-12.34-44.462-14.868 6.532-35.992 21.085-35.992 21.085l-1.722 37.243 11.251 17.762s5.625-4.47 11.136-4.01c5.51.457 7.462 8.364 12.054 7.791 6.544-3.552 11.021-8.595 11.021-8.595s-5.625-15.01-5.28-20.97" transform="translate(-930 -182) matrix(-1 0 0 1 1783 182.13) translate(30) translate(0 22.87)"/>
                        <path fill="#DB6767" d="M270.34 65.254s5.215 4.603 9.333 3.233l-.384-1.863s-6.423.877-8.949-1.37" transform="translate(-930 -182) matrix(-1 0 0 1 1783 182.13) translate(30) translate(0 22.87)"/>
                        <path fill="#871A04" d="M220.514 62.79s-125.212 44.004-96.434 90.146c28.777 46.143 101.639-25.974 101.639-25.974s45.92-43.24 38.42-69.825c-7.194-6.57-9.184-7.028-7.654-12.987 1.531-5.959 6.276-1.223 6.276-1.223s3.494 1.987 2.206-1.07c-1.287-3.055-6.185-12.986 1.468-17.111s20.052-2.14 22.807-9.473c2.756-7.334 1.072-11.307-10.867-14.362-11.94-3.057-31.38 5.194-41.33 15.431-9.95 10.237-19.286 32.545-16.53 46.448" transform="translate(-930 -182) matrix(-1 0 0 1 1783 182.13) translate(30) translate(0 22.87)"/>
                        <path fill="#FFD1BE" d="M198.166 140.866s-24.11 18.564-28.7 34.607c-4.594 16.043 36.966 66.921 40.869 70.359 3.903 3.438 12.169 5.271 19.401.573 7.233-4.698 10.448-22.345 16.073-23.72 3.1-.688 4.132-5.043-5.74-4.584-9.873.458-19.057 6.188-21.928 12.032-5.395-11.23-29.466-43.125-24.567-55.043 4.898-11.917 15.766-17.57 15.766-17.57l-11.174-16.654z" transform="translate(-930 -182) matrix(-1 0 0 1 1783 182.13) translate(30) translate(0 22.87)"/>
                        <path fill="#FFF" d="M248.22 126.656c-1.837 4.89-27.52 31.017-43.133 37.128-11.787-1.833-16.718-19.404-16.718-19.404s52.705-49.836 62.76-54.393c0 0 6.34-2.904 10.578-1.17 0 0 16.465 3.322 18.368 9.459 1.903 6.136 4.392 20.07 4.392 20.07" transform="translate(-930 -182) matrix(-1 0 0 1 1783 182.13) translate(30) translate(0 22.87)"/>
                        <path fill="#03157A" d="M316.727 493.122s28.386-15.011 38.604-14.667c10.217.343 12.514-4.699 15.269-8.022 2.755-3.323 3.559 2.063 4.363 5.615.803 3.553 6.773 23.262 3.673 23.491-3.1.23-11.825-.343-15.614 3.782-3.788 4.125-11.135 1.948-16.761 5.385-5.625 3.439-11.595 9.282-14.005 8.48-2.411-.801-18.353-23.932-15.529-24.064M191.048 491.976c1.607-.035 51.202-8.709 55.106-4.583 3.902 4.125 1.147 30.252-10.563 31.856-11.71 1.604-37.655.608-40.87-1.987-3.214-2.596-7.58-25.199-3.673-25.286" transform="translate(-930 -182) matrix(-1 0 0 1 1783 182.13) translate(30) translate(0 22.87)"/>
                        <path fill="#FFF" d="M502.176 233.43c0 21.605-17.548 39.114-39.186 39.114-10.113 0-19.331-3.826-26.281-10.101 3.04-3.318 6.5-7.125 9.881-10.854 4.342 3.91 10.087 6.289 16.4 6.289 13.528 0 24.492-10.944 24.492-24.447 0-9.632-5.572-17.959-13.682-21.939 2.126-4.353 4.348-8.905 6.428-13.194 13 6.366 21.948 19.708 21.948 35.133" transform="translate(-930 -182) matrix(-1 0 0 1 1783 182.13) translate(30) translate(0 22.87)"/>
                        <path fill="#FE7101" d="M480.229 198.298c-2.081 4.289-4.304 8.842-6.429 13.194-3.26-1.607-6.931-2.507-10.81-2.507-9.778 0-18.217 5.716-22.14 13.985l-13.282-6.276c6.28-13.232 19.782-22.376 35.423-22.376 6.19 0 12.04 1.434 17.238 3.98" transform="translate(-930 -182) matrix(-1 0 0 1 1783 182.13) translate(30) translate(0 22.87)"/>
                        <path fill="#003FC3" d="M575.052 257.878c-6.313 0-12.06-2.38-16.4-6.289-3.383 3.73-6.842 7.536-9.883 10.854 6.951 6.276 16.17 10.1 26.283 10.1 5.503 0 10.74-1.137 15.492-3.18l-5.992-13.393c-2.921 1.228-6.131 1.908-9.5 1.908" transform="translate(-930 -182) matrix(-1 0 0 1 1783 182.13) translate(30) translate(0 22.87)"/>
                        <path fill="#FFF" d="M614.237 233.43c0-15.424-8.948-28.766-21.948-35.132-2.08 4.289-4.302 8.841-6.428 13.194 8.11 3.98 13.682 12.307 13.682 21.939 0 10.14-6.183 18.836-14.991 22.539l5.992 13.392c13.933-5.994 23.693-19.822 23.693-35.931" transform="translate(-930 -182) matrix(-1 0 0 1 1783 182.13) translate(30) translate(0 22.87)"/>
                        <path fill="#FE7101" d="M592.29 198.296c-2.082 4.292-4.305 8.842-6.43 13.196-3.26-1.605-6.931-2.51-10.806-2.51-9.782 0-18.222 5.72-22.14 13.99-1.023 2.14-1.724 4.458-2.082 6.886l-14.415-3.013c.61-3.572 1.7-6.979 3.21-10.152 6.283-13.232 19.786-22.376 35.427-22.376 6.186 0 12.037 1.433 17.237 3.979" transform="translate(-930 -182) matrix(-1 0 0 1 1783 182.13) translate(30) translate(0 22.87)"/>
                        <path stroke="#FFF" stroke-linecap="round" stroke-linejoin="round" stroke-width="2" d="M504.347 460.349s29.503-17.19 20.778-35.753c-8.726-18.564 1.49-30.71 15.21-37.127 13.72-6.418 26.348-2.751 24.512-20.398-1.837-17.647.917-27.502 3.443-30.023" transform="translate(-930 -182) matrix(-1 0 0 1 1783 182.13) translate(30) translate(0 22.87)"/>
                        <path fill="#03157A" d="M456.931 457.828l11.25 56.15 7.959.264-10.297-61.002c-5.233 1.053-8.646 2.57-8.912 4.588" transform="translate(-930 -182) matrix(-1 0 0 1 1783 182.13) translate(30) translate(0 22.87)"/>
                        <path fill="#003FC3" d="M465.843 453.24l10.297 61.001 7.665.255-7.367-62.619c-3.968.306-7.585.756-10.595 1.363" transform="translate(-930 -182) matrix(-1 0 0 1 1783 182.13) translate(30) translate(0 22.87)"/>
                        <path fill="#003FC3" d="M476.438 451.877l7.366 62.618 32.825 1.087s15.53-55.238 15.614-55.92c.793-6.507-33.223-9.523-55.805-7.785" transform="translate(-930 -182) matrix(-1 0 0 1 1783 182.13) translate(30) translate(0 22.87)"/>
                        <path fill="#03157A" d="M459.457 511.228v6.532c0 9.058 6.542 16.587 15.167 18.147l-3.988-24.68h-11.179z" transform="translate(-930 -182) matrix(-1 0 0 1 1783 182.13) translate(30) translate(0 22.87)"/>
                        <path fill="#003FC3" d="M470.636 511.228l3.988 24.679c1.077.195 2.183.302 3.316.302h8.84l-5.538-24.981h-10.606zM481.242 511.228l5.539 24.98h20.778c10.209 0 18.484-8.259 18.484-18.448v-6.532h-44.801z" transform="translate(-930 -182) matrix(-1 0 0 1 1783 182.13) translate(30) translate(0 22.87)"/>
                        <path fill="#03157A" d="M223.571 259.731s26.17-4.968 26.17-23.962M316.727 233.43s6.312 14.093 11.362 18.748" transform="translate(-930 -182) matrix(-1 0 0 1 1783 182.13) translate(30) translate(0 22.87)"/>
                        <path fill="#FFF" d="M656.445 371.196c0 9.401-7.635 17.022-17.053 17.022-9.419 0-17.054-7.62-17.054-17.022 0-9.4 7.635-17.022 17.054-17.022 9.418 0 17.053 7.621 17.053 17.022" transform="translate(-930 -182) matrix(-1 0 0 1 1783 182.13) translate(30) translate(0 22.87)"/>
                        <g transform="translate(-930 -182) matrix(-1 0 0 1 1783 182.13) translate(30) translate(0 22.87) translate(664.366 275.365)">
                            <mask id="4ik4w2plwv" fill="#fff">
                                <use xlink:href="#f58f62hkhu"/>
                            </mask>
                            <path fill="#FFF" d="M39.968 55.53H4.655c-2.335 0-4.23-1.891-4.23-4.223V4.614C.426 2.282 2.32.39 4.656.39h35.313c2.336 0 4.23 1.89 4.23 4.223v46.693c0 2.332-1.894 4.223-4.23 4.223" mask="url(#4ik4w2plwv)"/>
                        </g>
                    </g>
                    <g transform="translate(-930 -182) matrix(-1 0 0 1 1783 182.13) translate(30) translate(648 285.87)">
                        <mask id="fpd8cm4cuy" fill="#fff">
                            <use xlink:href="#he4eghtzew"/>
                        </mask>
                        <path fill="url(#q9vyt2duqx)" d="M4.805.379C2.45.379.54 2.27.54 4.603v46.703c0 2.333 1.91 4.224 4.265 4.224h35.602c2.355 0 4.264-1.89 4.264-4.224V4.603c0-2.333-1.91-4.224-4.264-4.224H4.805z" mask="url(#fpd8cm4cuy)"/>
                    </g>
                    <g fill="#FFF">
                        <path d="M.018 4.685L29.965 4.685 29.965.089.018.089zM.018 15.05L29.965 15.05 29.965 10.454.018 10.454zM.018 25.415L29.965 25.415 29.965 20.819.018 20.819zM.018 35.781L29.965 35.781 29.965 31.185.018 31.185z" transform="translate(-930 -182) matrix(-1 0 0 1 1783 182.13) translate(30) translate(655 293.87)"/>
                    </g>
                </g>
            </g>
        </g>
    </g>
</svg>
